<?xml version="1.0" encoding="UTF-8" standalone="no"?>
<!-- Created with Inkscape (http://www.inkscape.org/) -->

<svg
   version="1.1"
   id="svg66"
   width="500"
   height="500"
   viewBox="0 0 500 500"
   sodipodi:docname="frameBelut0000.svg"
   inkscape:version="1.1.2 (76b9e6a115, 2022-02-25)"
   xmlns:inkscape="http://www.inkscape.org/namespaces/inkscape"
   xmlns:sodipodi="http://sodipodi.sourceforge.net/DTD/sodipodi-0.dtd"
   xmlns="http://www.w3.org/2000/svg"
   xmlns:svg="http://www.w3.org/2000/svg">
  <defs
     id="defs70" />
  <sodipodi:namedview
     id="namedview68"
     pagecolor="#ffffff"
     bordercolor="#666666"
     borderopacity="1.0"
     inkscape:pageshadow="2"
     inkscape:pageopacity="0.0"
     inkscape:pagecheckerboard="0"
     showgrid="false"
     showguides="true"
     inkscape:guide-bbox="true"
     inkscape:zoom="0.89"
     inkscape:cx="206.17978"
     inkscape:cy="254.49438"
     inkscape:window-width="1366"
     inkscape:window-height="654"
     inkscape:window-x="0"
     inkscape:window-y="27"
     inkscape:window-maximized="1"
     inkscape:current-layer="g72">
    <sodipodi:guide
       position="144.94382,226.96629"
       orientation="1,0"
       id="guide884" />
    <sodipodi:guide
       position="43.820225,216.85393"
       orientation="0,-1"
       id="guide966" />
  </sodipodi:namedview>
  <g
     inkscape:groupmode="layer"
     inkscape:label="Image"
     id="g72">
    <g
       id="g752"
       transform="translate(0.238615,-0.79788)">
      <path
         style="fill:#d0fcea"
         d="m 255,281.95851 c -9.075,-1.05835 -20.775,-3.04441 -26,-4.41348 -5.225,-1.36907 -12.2,-2.7782 -15.5,-3.13141 -8.04765,-0.86137 -18.61439,-5.04633 -30.32787,-12.01135 -10.85743,-6.45601 -15.19511,-9.7944 -25.89112,-19.92647 l -7.41515,-7.02419 -2.92669,-10.47581 c -2.87809,-10.30182 -2.92679,-10.89212 -2.93293,-35.5443 -0.008,-30.47065 0.49278,-32.88704 8.45962,-40.85388 6.76919,-6.76919 13.69081,-9.57762 23.6049,-9.57762 11.97733,0 19.85717,5.56009 22.47141,15.85604 2.22532,8.76419 -1.33406,17.8029 -8.79716,22.33958 l -3.79085,2.30438 0.27292,16.32208 c 0.25301,15.13152 0.4188,16.40329 2.27292,17.43559 1.1,0.61244 4.25,3.18594 7,5.7189 9.70967,8.94333 17.0931,12.76736 27.10117,14.03626 4.18383,0.53046 10.59764,1.85468 14.2529,2.94273 7.95473,2.36784 19.4662,3.90207 35.39593,4.7175 l 11.75,0.60148 v -2.68693 c 0,-8.97627 10.26283,-17.87332 20.61704,-17.87332 14.30314,0 23.42933,12.90807 23.33907,33.01073 -0.0681,15.17481 -3.52733,21.97389 -13.69907,26.92574 -5.60783,2.73003 -6.23651,2.80823 -24.25704,3.01734 -13.09943,0.152 -23.31673,-0.34707 -35,-1.70959 z"
         id="path766" />
      <path
         style="fill:#abfada"
         d="m 262,281.91886 c -3.025,-0.4574 -10.12604,-1.31795 -15.78008,-1.91234 -5.65404,-0.59439 -13.07904,-1.9713 -16.5,-3.0598 -3.42096,-1.0885 -9.59492,-2.42385 -13.71992,-2.96744 -10.53347,-1.38809 -17.97052,-4.0917 -29.87448,-10.86038 -11.03083,-6.2722 -17.4996,-11.06382 -27.83588,-20.6189 -7.70593,-7.12353 -8.29853,-8.18937 -11.39789,-20.5 -2.19201,-8.70662 -2.39175,-11.50433 -2.39175,-33.5 0,-17.10953 0.38229,-25.26605 1.33156,-28.40974 1.93368,-6.40382 10.87763,-15.46361 17.83608,-18.0671 6.35821,-2.37891 17.73447,-2.71899 22.61448,-0.67603 6.25022,2.61659 12.70673,12.09442 12.70673,18.65287 0,6.16071 -5.33116,14.5743 -11.13729,17.57676 L 185,179.05136 v 14.3251 c 0,15.66423 0.83888,19.66417 4.53935,21.6446 1.34402,0.7193 3.95529,2.94158 5.80283,4.93842 5.43907,5.87858 16.43246,11.95711 23.7786,13.14781 3.50857,0.56868 10.87922,2.11403 16.37922,3.43411 11.53135,2.76768 32.08462,5.4586 41.69284,5.4586 h 6.60768 l 1.23926,-5.16584 c 0.90629,-3.77782 2.35258,-6.27915 5.3827,-9.30927 10.63162,-10.63162 25.63174,-7.4592 33.07752,6.99565 2.7516,5.34182 3.02776,6.8088 3.33525,17.71737 0.3138,11.13238 0.16916,12.23278 -2.26061,17.19905 -2.94482,6.019 -7.82665,9.93175 -15.1363,12.13163 -5.31166,1.59858 -37.60569,1.83702 -47.43834,0.35027 z"
         id="path764" />
      <path
         style="fill:#90f9cf"
         d="m 249.85866,279.94393 c -8.05274,-0.98699 -17.72774,-2.69135 -21.5,-3.78747 C 224.5864,275.06034 219.025,273.8716 216,273.51481 c -17.47505,-2.06109 -36.35076,-12.28995 -57.05357,-30.91766 -6.95969,-6.2621 -8.63255,-9.23407 -11.47491,-20.38603 -2.54521,-9.9861 -2.6128,-11.03081 -2.29695,-35.5 0.30937,-23.96705 0.43934,-25.44238 2.63386,-29.89755 2.77834,-5.6404 8.78089,-11.27749 15.06917,-14.15169 6.50775,-2.97451 18.9957,-3.01145 24.6224,-0.0728 12.87769,6.72556 13.99346,25.15922 2.02144,33.39619 -2.35444,1.6199 -4.55994,3.6727 -4.90112,4.5618 -0.90158,2.34946 -0.67785,22.20434 0.30767,27.3053 0.69437,3.59397 1.95008,5.36531 7.20645,10.16565 3.50106,3.1973 9.83355,7.92621 14.0722,10.50868 6.32882,3.85593 8.92119,4.83252 14.5,5.46237 3.73635,0.42184 11.06836,1.89131 16.29336,3.26549 5.225,1.37418 16.025,3.23274 24,4.13012 21.46732,2.41561 24,2.2002 24,-2.04131 0,-5.28385 5.0985,-12.30642 11.21016,-15.44067 10.18647,-5.22393 22.28726,0.23538 27.9225,12.59732 2.75959,6.05366 2.67872,27.98924 -0.12343,33.48191 -2.22407,4.35953 -6.57941,8.02486 -12.38135,10.41976 -5.50425,2.27203 -41.6847,2.00391 -61.76922,-0.45774 z"
         id="path762" />
      <path
         style="fill:#75f8c3"
         d="m 254.5,280.31861 c -6.6,-0.78123 -17.625,-2.72364 -24.5,-4.31645 -6.875,-1.59282 -14.975,-3.16547 -18,-3.49479 C 198.77673,271.06783 175.96158,258.00442 158.71909,242 c -7.07898,-6.57068 -7.80656,-7.87748 -10.85698,-19.5 -2.17983,-8.30547 -2.36211,-10.92925 -2.36211,-34 0,-28.83246 0.29374,-30.28692 7.69767,-38.11549 13.84769,-14.64189 36.58416,-13.15245 43.25165,2.83337 1.96289,4.70618 1.96673,8.85061 0.0125,13.52764 -1.9107,4.57295 -3.91269,6.84723 -8.71186,9.89673 l -3.75,2.38284 0.006,13.73745 c 0.007,17.38932 0.69498,19.93653 6.48679,24.01897 2.47919,1.7475 4.50763,3.62272 4.50763,4.16715 0,1.12002 9.22252,7.23348 16,10.60615 2.475,1.23163 7.425,2.5632 11,2.95906 3.575,0.39585 9.2,1.57488 12.5,2.62007 7.4596,2.36264 36.35187,6.07506 44.11335,5.66821 l 5.76422,-0.30215 1.18778,-4.67228 c 2.53844,-9.98531 9.17866,-15.31246 19.09851,-15.32187 8.33783,-0.008 13.49502,3.52188 18.07665,12.37241 3.12268,6.03219 3.25949,6.77687 3.25949,17.74123 0,12.84638 -1.12806,16.84164 -6.2492,22.13294 -5.94833,6.14596 -11.22076,7.26481 -33.53831,7.11709 C 275.37062,281.79775 261.1,281.09984 254.5,280.31861 Z"
         id="path760" />
      <path
         style="fill:#58f7b7"
         d="m 270,281.4693 c -0.825,-0.16428 -6.225,-0.81286 -12,-1.44129 -16.97046,-1.8467 -24.98059,-3.10988 -29.23179,-4.60979 -2.19587,-0.77475 -8.55453,-2.09008 -14.13035,-2.92295 -14.52719,-2.16996 -30.84244,-10.3034 -46.82142,-23.34131 -15.69066,-12.80266 -16.32449,-13.69237 -19.73763,-27.70575 -2.03646,-8.36113 -2.1808,-11.03167 -1.89174,-35 L 146.5,160.5 l 2.74901,-4.67638 c 5.80335,-9.87216 16.20628,-15.24993 28.34119,-14.6509 5.68822,0.2808 7.90883,0.89175 11.23025,3.08976 11.39014,7.53764 10.98902,24.61508 -0.74546,31.73752 l -4.11884,2.5 0.27192,16.73985 0.27193,16.73984 6.84411,6.26016 c 8.85951,8.10359 21.44223,15.50798 27.54414,16.20854 2.53646,0.29121 9.33675,1.67413 15.11175,3.07314 12.60585,3.05382 22.42601,4.36272 38.64109,5.15035 13.47887,0.65473 12.32775,1.19631 13.88839,-6.53427 1.04574,-5.17999 6.79364,-10.85912 12.79418,-12.64109 9.60073,-2.85111 18.11536,1.61863 23.81854,12.50348 2.11132,4.02957 2.3578,5.80674 2.3578,17 0,10.68509 -0.3005,13.08077 -2.06965,16.5 -2.58628,4.99848 -9.76873,9.97792 -16.4633,11.41365 -4.41804,0.9475 -32.8529,1.3749 -36.96705,0.55565 z"
         id="path758" />
      <path
         style="fill:#2df5a4"
         d="m 254.5,279.3405 c -6.6,-0.76859 -17.625,-2.70554 -24.5,-4.30434 -6.875,-1.59879 -14.75489,-3.12704 -17.51086,-3.39609 -12.75865,-1.24559 -34.89449,-13.7484 -53.13411,-30.01133 -5.92821,-5.28575 -7.76624,-8.63236 -10.50592,-19.12874 -2.16284,-8.28634 -2.34911,-10.98238 -2.34911,-34 0,-28.51749 0.33486,-30.27097 7.17792,-37.58675 12.55648,-13.4239 35.00716,-12.62655 41.40896,1.47066 3.81968,8.41119 1.04981,17.38833 -7.14431,23.15469 l -4.44257,3.12632 -0.27846,13.70498 c -0.35182,17.31508 0.47,20.56616 6.24761,24.71533 2.42829,1.74386 4.65024,3.78352 4.93768,4.53257 0.5973,1.55653 9.50423,7.43794 16.41986,10.84232 2.57032,1.2653 7.43132,2.59558 10.80223,2.95617 3.37091,0.3606 9.22091,1.54889 13,2.64065 8.8596,2.5595 36.49804,6.12752 44.47601,5.74168 l 6.17458,-0.29862 1.40278,-5.49627 c 2.89604,-11.34712 13.91278,-17.74641 24.00261,-13.9424 4.24967,1.60219 9.28058,6.84858 11.92779,12.43867 2.07164,4.37467 2.36899,6.47574 2.37754,16.79966 0.0105,12.68535 -0.79882,15.61401 -5.78872,20.94746 -5.23756,5.59815 -11.06353,6.76759 -32.98902,6.62185 C 275.37062,280.7969 261.1,280.10909 254.5,279.3405 Z"
         id="path756" />
      <path
         style="fill:#0af496"
         d="m 253.5,278.35682 c -6.6,-0.78803 -15.825,-2.36883 -20.5,-3.51289 -4.675,-1.14406 -12.25254,-2.68029 -16.83898,-3.41384 C 206.4351,269.87455 202.35719,268.65207 195.5,265.23634 182.86895,258.94452 171.08893,250.70072 158.00945,239 c -4.31367,-3.85895 -5.66324,-6.67822 -8.51952,-17.7974 -2.56353,-9.97953 -2.63507,-11.04449 -2.31756,-34.5 0.31051,-22.93827 0.44872,-24.44844 2.64556,-28.90865 4.79363,-9.73242 14.26216,-15.2405 26.2551,-15.27326 6.64966,-0.0182 8.09189,0.32268 11.8285,2.79545 10.7506,7.11441 10.49978,22.84814 -0.4667,29.27492 -3.43279,2.01175 -4.51199,3.3033 -5.01917,6.00679 -0.92687,4.94069 -0.0262,29.57544 1.15694,31.6425 0.54786,0.9572 4.44231,4.81771 8.65434,8.57892 C 200.8678,228.53528 214.28361,236 219.5102,236 c 1.84505,0 8.44755,1.28266 14.67222,2.85036 12.07746,3.04173 39.43456,6.54841 46.71574,5.98809 4.81559,-0.37057 5.66624,-1.2873 6.59737,-7.10983 0.71914,-4.49689 5.64643,-10.47216 10.20673,-12.37758 9.44261,-3.94537 18.85251,0.44154 23.91445,11.14896 2.07754,4.39459 2.36294,6.453 2.35707,17 -0.008,14.3987 -1.51768,18.08544 -9.40364,22.96462 l -4.90592,3.03538 -22.08211,0.1448 c -13.84207,0.0908 -26.55997,-0.38985 -34.08211,-1.28798 z"
         id="path754" />
    </g>
  </g>
</svg>
