<svg version="1.1" viewBox="0 0 500 500" xmlns="http://www.w3.org/2000/svg">
 <path d="m110.7 174.04c-29.701 4.874-12.369 48.005-6.96 65.518 2.137 6.92 7.056 11.866 10.626 18 11.706 20.112 32.439 34.587 52.334 45.514 14.732 8.091 27.634 14.153 45 11.021 11.112-2.003 29.085-6.905 37.999-13.925 13.425-10.574 22.8-32.486 27.001-48.61 4.016-15.414 11.307-43.173-13-45.66-15.107-1.545-19.872 13.048-22.499 24.66-2.506 11.076-5.831 28.613-14.891 36.436-3.335 2.879-9.486 3.781-13.61 5.221-5.524 1.928-11.165 4.639-17 2.268-20.526-8.339-46.024-28.001-54.773-48.925-6.354-15.195-4.968-55.663-30.227-51.518z" fill="#0df598"/>
</svg>
