<svg version="1.1" viewBox="0 0 500 500" xmlns="http://www.w3.org/2000/svg">
 <g>
  <path d="m97.655 262.6c-6.2923-2.3319-16.055-13.809-19.109-22.465-0.75746-2.1469-2.0912-5.284-2.9638-6.9715s-3.1743-9.2761-5.1149-16.864c-1.9406-7.5876-4.8341-16.496-6.43-19.796-4.8802-10.091-8.9662-39.507-7.1308-51.336 0.60133-3.8757 1.0933-9.9616 1.0933-13.524s1.125-12.132 2.5-19.042 2.5-13.414 2.5-14.453c0-7.8413 7.3711-22.336 13.44-26.428 1.8073-1.2187 7.5272-5.4615 12.711-9.4283 26.506-20.284 66.967-11.579 62.394 13.422-2.1778 11.905-9.965 17.546-25.013 18.118-9.9479 0.37849-10.074 0.41504-15.312 4.422-6.4451 4.9311-5.9847 4.1695-7.185 11.884-0.54473 3.5009-1.6186 9.5153-2.3864 13.365-3.7511 18.809-2.7916 48.278 1.8728 57.522 3.0728 6.0893 6.1469 15.622 8.5028 26.368 1.426 6.5042 3.4816 11.737 7.6607 19.5 12.122 22.519-0.85507 43.553-22.029 35.706z" fill="#d0fcea"/>
  <path d="m95.962 260.75c-4.9574-2.4999-14.087-13.713-16.08-19.75-0.63546-1.925-2.1606-5.525-3.3892-8-1.2286-2.475-3.6584-10.222-5.3995-17.215-1.7412-6.9931-4.5495-15.672-6.2408-19.286-7.9624-17.015-9.5-50.16-3.8272-82.499 0.43415-2.475 1.3087-7.65 1.9433-11.5 3.5302-21.415 7.9671-27.316 33.59-44.678 14.122-9.569 42.43-7.7227 50.405 3.2874 10.928 15.086-0.36657 31.817-21.514 31.868l-9.0496 0.021962-5.9504 4.7895c-5.2871 4.2557-6.017 5.2867-6.5482 9.25-0.32877 2.4532-1.5325 9.1855-2.6749 14.96-4.2957 21.715-3.6542 47.88 1.4464 59 3.3322 7.2644 8.3262 22.707 8.3262 25.746 0 3.1756 4.2343 13.729 9.6484 24.046 10.43 19.878-5.7463 39.508-24.687 29.957z" fill="#acfadb"/>
  <path d="m98.655 261.59c-6.5778-2.4227-15.327-12.585-18.875-21.924-1.0402-2.7377-2.5663-6.2828-3.3911-7.8779s-3.01-8.8368-4.8557-16.092-4.7403-16.208-6.4324-19.894c-7.3051-15.913-8.9982-54.779-3.5634-81.799 0.82973-4.125 1.944-10.425 2.4761-14 1.5864-10.658 5.3877-20.001 9.7651-24 5.6727-5.1826 18.575-15.009 24.948-19l5.5886-3.5 14.498-0.32633c20.35-0.45803 28.054 3.2993 31.034 15.135 3.632 14.427-7.2568 24.672-26.235 24.686-12.045 0.0085-19.611 6.4948-21.003 18.006-0.29931 2.475-1.0261 6.525-1.6151 9-5.033 21.149-3.7908 50.4 2.7816 65.5 3.2156 7.3875 5.3084 14.177 7.366 23.897 0.68662 3.2435 3.8606 11.038 7.0534 17.322 11.396 22.428 0.3249 42.184-19.54 34.868z" fill="#91f9cf"/>
  <path d="m95.751 259.99c-8.8734-4.8169-17.477-20.965-23.703-44.488-2.0381-7.7-4.6412-15.814-5.7846-18.03-7.9891-15.486-10.188-49.131-5.129-78.47 1.0907-6.325 2.4216-14.2 2.9575-17.5 3.2403-19.953 7.8395-25.991 32.547-42.731 15.459-10.474 44.324-7.5673 51.034 5.1383 7.6901 14.561-2.658 28.093-21.483 28.093-11.857 0-23.189 7.1078-23.189 14.545 0 1.7338-1.1338 8.2784-2.5195 14.544-4.613 20.856-3.6734 50.583 1.955 61.849 2.5172 5.0385 6.8623 18.758 8.4317 26.622 0.95501 4.7857 5.4777 15.262 10.277 23.806 9.1981 16.374-9.0432 35.499-25.394 26.623z" fill="#74f8c3"/>
  <path d="m97.5 260.16c-5.9117-2.8246-15.649-14.77-17.157-21.046-0.34579-1.4393-1.6141-4.6419-2.8185-7.1169-1.9673-4.0427-3.2193-8.3303-6.7161-23-0.58997-2.475-2.5899-7.9357-4.4444-12.135-13.889-31.451-6.8363-109.75 11.095-123.18 2.3406-1.7523 7.9256-6.0231 12.411-9.4906 25.911-20.031 65.587-11.461 59.195 12.786-2.7498 10.432-8.661 14.175-23.653 14.978-12.047 0.64508-20.507 5.5491-22.266 12.906-7.1272 29.809-7.7841 63.54-1.5022 77.134 3.5122 7.6002 6.964 18.322 8.3378 25.897 1.0361 5.7139 4.0038 12.699 11.06 26.03 8.2456 15.579-7.9857 33.669-23.541 26.236z" fill="#56f7b6"/>
  <path d="m95.5 258.58c-8.6643-5.206-16.348-19.943-22.46-43.078-2.0342-7.7-4.6342-15.814-5.7777-18.03-5.5429-10.744-8.6932-32.267-7.7533-52.97 0.60978-13.432 1.0952-17.743 3.4905-31 0.59626-3.3 1.53-8.7 2.0749-12 2.9771-18.029 5.3924-21.814 22.283-34.92 15.721-12.199 31.225-16 47.445-11.633 23.965 6.4531 16.893 36.053-8.6142 36.053-7.9283 0-9.3387 0.28622-12.8 2.5974-7.1847 4.798-11.389 9.5414-11.395 12.856-3e-3 1.6759-1.0779 8.222-2.3891 14.547-4.6894 22.621-3.912 50.454 1.7242 61.729 2.6989 5.3989 6.999 19.012 8.6394 27.351 0.60371 3.0687 3.7826 10.863 7.0641 17.322 6.4008 12.597 7.0765 16.006 4.4283 22.344-4.2969 10.284-16.587 14.465-25.962 8.8321z" fill="#2ef5a5"/>
  <path d="m99.5 259.51c-4.9223-1.7195-12.682-10.024-15.888-17.004-6.263-13.634-7.7974-17.846-10.204-28.011-1.4327-6.05-4.1202-14.398-5.9722-18.551-6.7439-15.123-9.2633-52.853-5.0139-75.088 1.658-8.676 2.7159-14.418 4.4155-23.967 2.6495-14.887 15.306-29.126 34.573-38.896 12.172-6.1724 36.234-3.9628 42.882 3.9379 10.54 12.526 1.0564 28.065-17.128 28.065-15.089 0-25.096 7.5444-26.528 20-0.28461 2.475-1.2338 7.65-2.1093 11.5-4.5237 19.892-3.5378 49.38 2.0502 61.324 3.279 7.0089 5.9824 15.447 7.9644 24.86 1.4376 6.8274 5.5013 16.542 10.97 26.223 7.9587 14.09-5.109 30.813-20.011 25.608z" fill="#0af496"/>
 </g>
</svg>
