<svg version="1.1" viewBox="0 0 500 500" xmlns="http://www.w3.org/2000/svg">
 <g>
  <path d="m180.5 98.924c-2.9429-0.88738-12.1-2.3194-26-4.0663-3.85-0.48382-15.12-1.2276-25.044-1.6528-22.929-0.98234-28.377-3.53-32.303-15.104-7.0079-20.661 14.268-32.441 48.847-27.046 7.3412 1.1453 19.367 2.5908 32.153 3.8646 4.7593 0.47416 10.371 1.429 12.47 2.1219 2.8275 0.93318 8.6463 1.0918 22.444 0.61203 29.707-1.033 43.344 13.072 30.418 31.463-6.6863 9.5135-44.457 15.395-62.986 9.8076z" fill="#d1fcea"/>
  <path d="m179.5 98.022c-9.3162-2.6103-29.572-4.9457-50.5-5.8224-21.09-0.88348-26.522-3.1737-30.64-12.917-8.6495-20.465 14.716-33.392 49.358-27.307 3.73 0.65517 10.382 1.6249 14.782 2.155s12.05 1.4669 17 2.0817 18.679 1.2011 30.509 1.3029c17.246 0.14836 22.106 0.49368 24.521 1.7425 15.626 8.0804 15.632 28.233 0.0122 36.228l-5.8914 3.0153-23.075 0.1813c-12.691 0.099715-24.425-0.19696-26.075-0.65927z" fill="#abfada"/>
  <path d="m182 97.856c-3.845-1.0319-10.534-2.051-25-3.8088-5.225-0.6349-11.075-1.5777-13-2.0952-1.925-0.51746-9.9304-0.94336-17.79-0.94642-21.412-0.008357-31.532-7.8133-28.827-22.233 2.45-13.06 9.5151-16.773 31.914-16.773 16.044 0 20.496 0.39168 40.203 3.5367 15.652 2.4979 20.494 2.8315 42.071 2.8982l21.071 0.06511 4.0557 2.6827c12.818 8.4784 11.959 26.894-1.5738 33.738-7.6404 3.8641-42.489 5.7896-53.124 2.9353z" fill="#91f9cf"/>
  <path d="m179 96.958c-1.925-0.46977-8.9-1.5809-15.5-2.4692s-14.172-2.0367-16.826-2.552-11.204-0.94682-19-0.9589c-22.854-0.035411-31.23-6.4765-29.411-22.615 1.7116-15.185 22.838-20.008 61.237-13.979 21.378 3.3565 28.644 3.9458 50.5 4.0957 23.876 0.16379 25.085 0.43639 30.797 6.9418 8.5876 9.7807 5.3625 23.164-7.2023 29.887-4.4365 2.374-46.427 3.6425-54.595 1.6493z" fill="#73f8c2"/>
  <path d="m181 96.868c-2.3442-0.94287-5.2321-1.3931-25.5-3.9757-4.4-0.56065-15.875-1.348-25.5-1.7496-31.533-1.3158-44.723-21.477-23.106-35.318l4.6059-2.9492 21 0.50015c11.55 0.27508 24.375 0.97609 28.5 1.5578s11.55 1.4857 16.5 2.0089c4.95 0.5232 10.8 1.4854 13 2.1381 2.8143 0.83503 9.4286 1.0027 22.314 0.56566 27.44-0.93074 39.016 9.0474 30.305 26.122-5.3394 10.466-45.744 17.686-62.119 11.1z" fill="#57f7b6"/>
  <path d="m178.5 95.966c-1.65-0.45648-8.4-1.5567-15-2.445s-14.438-2.0438-17.417-2.5679c-2.9792-0.52412-11.529-0.96282-19-0.9749-20.377-0.032947-27.104-4.2227-27.854-17.348-1.0936-19.158 20.905-24.654 65.77-16.43 12.337 2.2614 24.587 3.1565 45 3.2883 23.648 0.15267 25.293 0.5062 30.355 6.5211 8.8854 10.56 3.1001 25.992-11.237 29.974-4.294 1.1928-46.295 1.1777-50.618-0.01811z" fill="#2df5a4"/>
  <path d="m180.79 95.459c-0.36614-0.36614-3.9568-1.0663-7.9792-1.556-4.0224-0.48965-12.038-1.6168-17.813-2.5047s-17.925-1.9034-27-2.2565c-21.94-0.85371-28.277-4.6374-28.406-16.961-0.19292-18.49 19.49-22.679 68.906-14.667 15.435 2.5025 20.386 2.8478 42 2.9288 19.259 0.07222 21.29 0.24814 24.497 2.1221 12.219 7.1403 11.489 23.852-1.3411 30.713-4.1682 2.2289-50.887 4.1567-52.863 2.1813z" fill="#0af496"/>
 </g>
</svg>
