<svg version="1.1" viewBox="0 0 500 500" xmlns="http://www.w3.org/2000/svg">
 <g>
  <g transform="matrix(1 0 0 1 -.00089952 0)">
   <path d="m243.5 288.34c-14.259-7.504-16.85-25.908-4.9219-34.964 9.2405-7.0153 9.701-7.9354 14.454-28.877 1.2483-5.5 3.4152-12.925 4.8153-16.5 2.4778-6.3267 2.556-7.267 2.9296-35.262 0.47327-35.463 0.21734-36.763-12.12-61.575-3.0282-6.0899-9.0603-9.0507-19.94-9.7873-17.165-1.1622-25.633-8.3024-25.694-21.666-0.0685-14.932 10.066-21.375 31.791-20.212l13.589 0.72781 9.5489 4.9989c18.303 9.5817 27 19.545 34.716 39.775 1.3637 3.575 4.1156 10.775 6.1154 16l3.636 9.5 0.36953 34.687c0.39987 37.535-0.19451 43.946-5.3137 57.313-1.2638 3.3-2.8322 9.15-3.4852 13-6.1464 36.234-31.541 62.812-50.489 52.841z" fill="#cffcea"/>
   <path d="m243.5 287.43c-14.812-7.6877-15.681-25.115-1.7757-35.609 6.4703-4.8832 7.7676-7.853 12.372-28.321 1.2372-5.5 3.2967-12.823 4.5766-16.273 3.2682-8.8096 3.6074-65.233 0.4468-74.321-8.7554-25.175-14.328-31.17-30.12-32.405-38.427-3.0045-34.083-41.853 4.4934-40.185l14.007 0.6055 10.408 5.289c11.624 5.907 19.838 12.706 23.769 19.672 1.4326 2.5393 3.6104 6.21 4.8395 8.157 2.7754 4.3967 9.3887 20.72 12.868 31.761 5.2256 16.583 3.6599 81.268-2.2928 94.725-1.032 2.333-2.185 6.2064-2.5623 8.6076-6.4085 40.785-30.887 68.75-51.029 58.296z" fill="#aafada"/>
   <path d="m242.9 286.22c-12.561-6.562-14.368-23.005-3.4869-31.734 9.7206-7.798 10.12-8.5858 14.698-28.982 1.2346-5.5 3.506-13.6 5.0476-18l2.8029-8 0.0197-30.093c0.0222-33.878 0.30432-32.18-8.4581-50.907-7.1146-15.205-9.6967-17.078-25.426-18.444-36.397-3.1615-31.45-41.74 5.0705-39.546 29.236 1.7566 47.015 15.999 59.342 47.537 9.1383 23.38 8.4955 18.79 8.4556 60.378-0.0373 38.774-0.33867 42.167-4.7829 53.855-1.0918 2.8712-2.7375 9.1848-3.6572 14.03-7.0295 37.037-30.014 60.151-49.626 49.906z" fill="#8ff9ce"/>
   <path d="m246.59 287.79c-16.179-4.4042-18.693-24.437-4.4311-35.31 6.0358-4.6016 8.369-8.7342 10.377-18.38 2.9243-14.048 4.4424-19.842 6.9098-26.372 3.501-9.2663 3.9988-65.305 0.66454-74.821-9.1569-26.133-14.263-31.449-32.068-33.386-18.003-1.9584-27.084-11.507-23.015-24.2 4.0662-12.686 12.288-16.14 33.159-13.932l12.681 1.3416 9.8185 5.7189c18.151 10.573 29.26 27.643 38.707 59.483 4.0088 13.511 1.8643 82.878-2.8437 91.982-0.80653 1.5596-2.5837 8.1796-3.9492 14.711-7.6348 36.517-26.612 58.445-46.01 53.164z" fill="#76f8c4"/>
   <path d="m243.17 285.85c-13.495-6.68-13.382-24.419 0.21615-33.775 4.4447-3.058 8.0158-9.3702 9.2316-16.317 1.4495-8.2828 5.6911-24.437 7.6411-29.102 3.0799-7.3679 3.3442-64.744 0.33872-73.531-8.6929-25.414-15.201-32.547-30.715-33.663-21.101-1.5183-31.486-15.742-21.808-29.867 16.552-24.156 68.594-2.0739 82.255 34.901 0.81283 2.2 3.0738 8.1623 5.0244 13.25 5.2433 13.675 5.6504 17.452 5.6242 52.184-0.0253 33.561-0.60129 38.851-5.7772 53.066-1.1014 3.025-2.5574 8.65-3.2355 12.5-6.3674 36.154-29.421 59.944-48.795 50.354z" fill="#58f7b7"/>
   <path d="m246.62 286.8c-16.07-4.3795-17.368-25.373-2.1512-34.778 3.7965-2.3464 7.0523-8.5103 8.6049-16.291 2.216-11.105 4.1497-18.551 6.9833-26.889l2.9431-8.6602v-30.896c0-35.191 0.21443-33.966-9.3208-53.268-6.7457-13.655-9.5108-15.544-25.418-17.357-14.973-1.7074-19.35-4.5459-22.326-14.481-7.7558-25.887 34.691-31.185 64.884-8.0987 9.0582 6.9259 19.927 27.114 27.068 50.276 4.5013 14.601 2.7724 83.668-2.3419 93.558-0.80653 1.5596-2.5748 8.1796-3.9295 14.711-7.4409 35.875-25.969 57.358-44.995 52.173z" fill="#2df5a4"/>
   <path d="m246.44 285.98c-14.508-4.449-16.011-22.822-2.6521-32.419 5.5704-4.0019 8.3935-9.3008 10.687-20.06 3.562-16.708 4.5281-20.311 6.7092-25.018 3.5793-7.7242 4.1186-65.068 0.70832-75.316-3.1152-9.3611-11.235-26.36-13.495-28.251-5.5373-4.6344-9.3458-5.9949-19.172-6.8483-16.726-1.4528-24.767-8.9642-22.699-21.203 1.8868-11.168 10.928-15.525 29.073-14.01 13.432 1.1216 13.67 1.1999 27.875 9.1815 13.48 7.5739 23.441 23.698 33.446 54.135 3.4144 10.387 2.8379 80.074-0.73896 89.33-2.5679 6.6449-2.8255 7.579-7.0687 25.63-7.1558 30.442-25.79 50.026-42.673 44.849z" fill="#0af496"/>
  </g>
 </g>
</svg>
