<svg id="svg-play" xmlns="http://www.w3.org/2000/svg" xmlns:xlink="http://www.w3.org/1999/xlink" width="320" height="320" >
  

  <g>

    <g>
      <g transform="matrix(1 0 0 1 -.00089952 0)">
       <path d="m243.5 288.34c-14.259-7.504-16.85-25.908-4.9219-34.964 9.2405-7.0153 9.701-7.9354 14.454-28.877 1.2483-5.5 3.4152-12.925 4.8153-16.5 2.4778-6.3267 2.556-7.267 2.9296-35.262 0.47327-35.463 0.21734-36.763-12.12-61.575-3.0282-6.0899-9.0603-9.0507-19.94-9.7873-17.165-1.1622-25.633-8.3024-25.694-21.666-0.0685-14.932 10.066-21.375 31.791-20.212l13.589 0.72781 9.5489 4.9989c18.303 9.5817 27 19.545 34.716 39.775 1.3637 3.575 4.1156 10.775 6.1154 16l3.636 9.5 0.36953 34.687c0.39987 37.535-0.19451 43.946-5.3137 57.313-1.2638 3.3-2.8322 9.15-3.4852 13-6.1464 36.234-31.541 62.812-50.489 52.841z" fill="#cffcea"/>
       <path d="m243.5 287.43c-14.812-7.6877-15.681-25.115-1.7757-35.609 6.4703-4.8832 7.7676-7.853 12.372-28.321 1.2372-5.5 3.2967-12.823 4.5766-16.273 3.2682-8.8096 3.6074-65.233 0.4468-74.321-8.7554-25.175-14.328-31.17-30.12-32.405-38.427-3.0045-34.083-41.853 4.4934-40.185l14.007 0.6055 10.408 5.289c11.624 5.907 19.838 12.706 23.769 19.672 1.4326 2.5393 3.6104 6.21 4.8395 8.157 2.7754 4.3967 9.3887 20.72 12.868 31.761 5.2256 16.583 3.6599 81.268-2.2928 94.725-1.032 2.333-2.185 6.2064-2.5623 8.6076-6.4085 40.785-30.887 68.75-51.029 58.296z" fill="#aafada"/>
       <path d="m242.9 286.22c-12.561-6.562-14.368-23.005-3.4869-31.734 9.7206-7.798 10.12-8.5858 14.698-28.982 1.2346-5.5 3.506-13.6 5.0476-18l2.8029-8 0.0197-30.093c0.0222-33.878 0.30432-32.18-8.4581-50.907-7.1146-15.205-9.6967-17.078-25.426-18.444-36.397-3.1615-31.45-41.74 5.0705-39.546 29.236 1.7566 47.015 15.999 59.342 47.537 9.1383 23.38 8.4955 18.79 8.4556 60.378-0.0373 38.774-0.33867 42.167-4.7829 53.855-1.0918 2.8712-2.7375 9.1848-3.6572 14.03-7.0295 37.037-30.014 60.151-49.626 49.906z" fill="#8ff9ce"/>
       <path d="m246.59 287.79c-16.179-4.4042-18.693-24.437-4.4311-35.31 6.0358-4.6016 8.369-8.7342 10.377-18.38 2.9243-14.048 4.4424-19.842 6.9098-26.372 3.501-9.2663 3.9988-65.305 0.66454-74.821-9.1569-26.133-14.263-31.449-32.068-33.386-18.003-1.9584-27.084-11.507-23.015-24.2 4.0662-12.686 12.288-16.14 33.159-13.932l12.681 1.3416 9.8185 5.7189c18.151 10.573 29.26 27.643 38.707 59.483 4.0088 13.511 1.8643 82.878-2.8437 91.982-0.80653 1.5596-2.5837 8.1796-3.9492 14.711-7.6348 36.517-26.612 58.445-46.01 53.164z" fill="#76f8c4"/>
       <path d="m243.17 285.85c-13.495-6.68-13.382-24.419 0.21615-33.775 4.4447-3.058 8.0158-9.3702 9.2316-16.317 1.4495-8.2828 5.6911-24.437 7.6411-29.102 3.0799-7.3679 3.3442-64.744 0.33872-73.531-8.6929-25.414-15.201-32.547-30.715-33.663-21.101-1.5183-31.486-15.742-21.808-29.867 16.552-24.156 68.594-2.0739 82.255 34.901 0.81283 2.2 3.0738 8.1623 5.0244 13.25 5.2433 13.675 5.6504 17.452 5.6242 52.184-0.0253 33.561-0.60129 38.851-5.7772 53.066-1.1014 3.025-2.5574 8.65-3.2355 12.5-6.3674 36.154-29.421 59.944-48.795 50.354z" fill="#58f7b7"/>
       <path d="m246.62 286.8c-16.07-4.3795-17.368-25.373-2.1512-34.778 3.7965-2.3464 7.0523-8.5103 8.6049-16.291 2.216-11.105 4.1497-18.551 6.9833-26.889l2.9431-8.6602v-30.896c0-35.191 0.21443-33.966-9.3208-53.268-6.7457-13.655-9.5108-15.544-25.418-17.357-14.973-1.7074-19.35-4.5459-22.326-14.481-7.7558-25.887 34.691-31.185 64.884-8.0987 9.0582 6.9259 19.927 27.114 27.068 50.276 4.5013 14.601 2.7724 83.668-2.3419 93.558-0.80653 1.5596-2.5748 8.1796-3.9295 14.711-7.4409 35.875-25.969 57.358-44.995 52.173z" fill="#2df5a4"/>
       <path d="m246.44 285.98c-14.508-4.449-16.011-22.822-2.6521-32.419 5.5704-4.0019 8.3935-9.3008 10.687-20.06 3.562-16.708 4.5281-20.311 6.7092-25.018 3.5793-7.7242 4.1186-65.068 0.70832-75.316-3.1152-9.3611-11.235-26.36-13.495-28.251-5.5373-4.6344-9.3458-5.9949-19.172-6.8483-16.726-1.4528-24.767-8.9642-22.699-21.203 1.8868-11.168 10.928-15.525 29.073-14.01 13.432 1.1216 13.67 1.1999 27.875 9.1815 13.48 7.5739 23.441 23.698 33.446 54.135 3.4144 10.387 2.8379 80.074-0.73896 89.33-2.5679 6.6449-2.8255 7.579-7.0687 25.63-7.1558 30.442-25.79 50.026-42.673 44.849z" fill="#0af496"/>
      </g>
    </g>
    <animate
      id="frame1"
      attributeName="display"
      values="none;none;inline;none"
      keyTimes="0;0.33;0.66;1"
      dur="3s"
      begin="0s"
      repeatCount="indefinite" />

  </g>


  <g>
    <g>
     <path d="m180.5 98.924c-2.9429-0.88738-12.1-2.3194-26-4.0663-3.85-0.48382-15.12-1.2276-25.044-1.6528-22.929-0.98234-28.377-3.53-32.303-15.104-7.0079-20.661 14.268-32.441 48.847-27.046 7.3412 1.1453 19.367 2.5908 32.153 3.8646 4.7593 0.47416 10.371 1.429 12.47 2.1219 2.8275 0.93318 8.6463 1.0918 22.444 0.61203 29.707-1.033 43.344 13.072 30.418 31.463-6.6863 9.5135-44.457 15.395-62.986 9.8076z" fill="#d1fcea"/>
     <path d="m179.5 98.022c-9.3162-2.6103-29.572-4.9457-50.5-5.8224-21.09-0.88348-26.522-3.1737-30.64-12.917-8.6495-20.465 14.716-33.392 49.358-27.307 3.73 0.65517 10.382 1.6249 14.782 2.155s12.05 1.4669 17 2.0817 18.679 1.2011 30.509 1.3029c17.246 0.14836 22.106 0.49368 24.521 1.7425 15.626 8.0804 15.632 28.233 0.0122 36.228l-5.8914 3.0153-23.075 0.1813c-12.691 0.099715-24.425-0.19696-26.075-0.65927z" fill="#abfada"/>
     <path d="m182 97.856c-3.845-1.0319-10.534-2.051-25-3.8088-5.225-0.6349-11.075-1.5777-13-2.0952-1.925-0.51746-9.9304-0.94336-17.79-0.94642-21.412-0.008357-31.532-7.8133-28.827-22.233 2.45-13.06 9.5151-16.773 31.914-16.773 16.044 0 20.496 0.39168 40.203 3.5367 15.652 2.4979 20.494 2.8315 42.071 2.8982l21.071 0.06511 4.0557 2.6827c12.818 8.4784 11.959 26.894-1.5738 33.738-7.6404 3.8641-42.489 5.7896-53.124 2.9353z" fill="#91f9cf"/>
     <path d="m179 96.958c-1.925-0.46977-8.9-1.5809-15.5-2.4692s-14.172-2.0367-16.826-2.552-11.204-0.94682-19-0.9589c-22.854-0.035411-31.23-6.4765-29.411-22.615 1.7116-15.185 22.838-20.008 61.237-13.979 21.378 3.3565 28.644 3.9458 50.5 4.0957 23.876 0.16379 25.085 0.43639 30.797 6.9418 8.5876 9.7807 5.3625 23.164-7.2023 29.887-4.4365 2.374-46.427 3.6425-54.595 1.6493z" fill="#73f8c2"/>
     <path d="m181 96.868c-2.3442-0.94287-5.2321-1.3931-25.5-3.9757-4.4-0.56065-15.875-1.348-25.5-1.7496-31.533-1.3158-44.723-21.477-23.106-35.318l4.6059-2.9492 21 0.50015c11.55 0.27508 24.375 0.97609 28.5 1.5578s11.55 1.4857 16.5 2.0089c4.95 0.5232 10.8 1.4854 13 2.1381 2.8143 0.83503 9.4286 1.0027 22.314 0.56566 27.44-0.93074 39.016 9.0474 30.305 26.122-5.3394 10.466-45.744 17.686-62.119 11.1z" fill="#57f7b6"/>
     <path d="m178.5 95.966c-1.65-0.45648-8.4-1.5567-15-2.445s-14.438-2.0438-17.417-2.5679c-2.9792-0.52412-11.529-0.96282-19-0.9749-20.377-0.032947-27.104-4.2227-27.854-17.348-1.0936-19.158 20.905-24.654 65.77-16.43 12.337 2.2614 24.587 3.1565 45 3.2883 23.648 0.15267 25.293 0.5062 30.355 6.5211 8.8854 10.56 3.1001 25.992-11.237 29.974-4.294 1.1928-46.295 1.1777-50.618-0.01811z" fill="#2df5a4"/>
     <path d="m180.79 95.459c-0.36614-0.36614-3.9568-1.0663-7.9792-1.556-4.0224-0.48965-12.038-1.6168-17.813-2.5047s-17.925-1.9034-27-2.2565c-21.94-0.85371-28.277-4.6374-28.406-16.961-0.19292-18.49 19.49-22.679 68.906-14.667 15.435 2.5025 20.386 2.8478 42 2.9288 19.259 0.07222 21.29 0.24814 24.497 2.1221 12.219 7.1403 11.489 23.852-1.3411 30.713-4.1682 2.2289-50.887 4.1567-52.863 2.1813z" fill="#0af496"/>
    </g>
    <animate
      id="frame2"
      attributeName="display"
      values="none;none;inline;none"
      keyTimes="0;0.33;0.66;1"
      dur="3s"
      begin="frame1.begin+1s"
      repeatCount="indefinite" />
  </g>


  <g>

    <g>
     <path d="m97.655 262.6c-6.2923-2.3319-16.055-13.809-19.109-22.465-0.75746-2.1469-2.0912-5.284-2.9638-6.9715s-3.1743-9.2761-5.1149-16.864c-1.9406-7.5876-4.8341-16.496-6.43-19.796-4.8802-10.091-8.9662-39.507-7.1308-51.336 0.60133-3.8757 1.0933-9.9616 1.0933-13.524s1.125-12.132 2.5-19.042 2.5-13.414 2.5-14.453c0-7.8413 7.3711-22.336 13.44-26.428 1.8073-1.2187 7.5272-5.4615 12.711-9.4283 26.506-20.284 66.967-11.579 62.394 13.422-2.1778 11.905-9.965 17.546-25.013 18.118-9.9479 0.37849-10.074 0.41504-15.312 4.422-6.4451 4.9311-5.9847 4.1695-7.185 11.884-0.54473 3.5009-1.6186 9.5153-2.3864 13.365-3.7511 18.809-2.7916 48.278 1.8728 57.522 3.0728 6.0893 6.1469 15.622 8.5028 26.368 1.426 6.5042 3.4816 11.737 7.6607 19.5 12.122 22.519-0.85507 43.553-22.029 35.706z" fill="#d0fcea"/>
     <path d="m95.962 260.75c-4.9574-2.4999-14.087-13.713-16.08-19.75-0.63546-1.925-2.1606-5.525-3.3892-8-1.2286-2.475-3.6584-10.222-5.3995-17.215-1.7412-6.9931-4.5495-15.672-6.2408-19.286-7.9624-17.015-9.5-50.16-3.8272-82.499 0.43415-2.475 1.3087-7.65 1.9433-11.5 3.5302-21.415 7.9671-27.316 33.59-44.678 14.122-9.569 42.43-7.7227 50.405 3.2874 10.928 15.086-0.36657 31.817-21.514 31.868l-9.0496 0.021962-5.9504 4.7895c-5.2871 4.2557-6.017 5.2867-6.5482 9.25-0.32877 2.4532-1.5325 9.1855-2.6749 14.96-4.2957 21.715-3.6542 47.88 1.4464 59 3.3322 7.2644 8.3262 22.707 8.3262 25.746 0 3.1756 4.2343 13.729 9.6484 24.046 10.43 19.878-5.7463 39.508-24.687 29.957z" fill="#acfadb"/>
     <path d="m98.655 261.59c-6.5778-2.4227-15.327-12.585-18.875-21.924-1.0402-2.7377-2.5663-6.2828-3.3911-7.8779s-3.01-8.8368-4.8557-16.092-4.7403-16.208-6.4324-19.894c-7.3051-15.913-8.9982-54.779-3.5634-81.799 0.82973-4.125 1.944-10.425 2.4761-14 1.5864-10.658 5.3877-20.001 9.7651-24 5.6727-5.1826 18.575-15.009 24.948-19l5.5886-3.5 14.498-0.32633c20.35-0.45803 28.054 3.2993 31.034 15.135 3.632 14.427-7.2568 24.672-26.235 24.686-12.045 0.0085-19.611 6.4948-21.003 18.006-0.29931 2.475-1.0261 6.525-1.6151 9-5.033 21.149-3.7908 50.4 2.7816 65.5 3.2156 7.3875 5.3084 14.177 7.366 23.897 0.68662 3.2435 3.8606 11.038 7.0534 17.322 11.396 22.428 0.3249 42.184-19.54 34.868z" fill="#91f9cf"/>
     <path d="m95.751 259.99c-8.8734-4.8169-17.477-20.965-23.703-44.488-2.0381-7.7-4.6412-15.814-5.7846-18.03-7.9891-15.486-10.188-49.131-5.129-78.47 1.0907-6.325 2.4216-14.2 2.9575-17.5 3.2403-19.953 7.8395-25.991 32.547-42.731 15.459-10.474 44.324-7.5673 51.034 5.1383 7.6901 14.561-2.658 28.093-21.483 28.093-11.857 0-23.189 7.1078-23.189 14.545 0 1.7338-1.1338 8.2784-2.5195 14.544-4.613 20.856-3.6734 50.583 1.955 61.849 2.5172 5.0385 6.8623 18.758 8.4317 26.622 0.95501 4.7857 5.4777 15.262 10.277 23.806 9.1981 16.374-9.0432 35.499-25.394 26.623z" fill="#74f8c3"/>
     <path d="m97.5 260.16c-5.9117-2.8246-15.649-14.77-17.157-21.046-0.34579-1.4393-1.6141-4.6419-2.8185-7.1169-1.9673-4.0427-3.2193-8.3303-6.7161-23-0.58997-2.475-2.5899-7.9357-4.4444-12.135-13.889-31.451-6.8363-109.75 11.095-123.18 2.3406-1.7523 7.9256-6.0231 12.411-9.4906 25.911-20.031 65.587-11.461 59.195 12.786-2.7498 10.432-8.661 14.175-23.653 14.978-12.047 0.64508-20.507 5.5491-22.266 12.906-7.1272 29.809-7.7841 63.54-1.5022 77.134 3.5122 7.6002 6.964 18.322 8.3378 25.897 1.0361 5.7139 4.0038 12.699 11.06 26.03 8.2456 15.579-7.9857 33.669-23.541 26.236z" fill="#56f7b6"/>
     <path d="m95.5 258.58c-8.6643-5.206-16.348-19.943-22.46-43.078-2.0342-7.7-4.6342-15.814-5.7777-18.03-5.5429-10.744-8.6932-32.267-7.7533-52.97 0.60978-13.432 1.0952-17.743 3.4905-31 0.59626-3.3 1.53-8.7 2.0749-12 2.9771-18.029 5.3924-21.814 22.283-34.92 15.721-12.199 31.225-16 47.445-11.633 23.965 6.4531 16.893 36.053-8.6142 36.053-7.9283 0-9.3387 0.28622-12.8 2.5974-7.1847 4.798-11.389 9.5414-11.395 12.856-3e-3 1.6759-1.0779 8.222-2.3891 14.547-4.6894 22.621-3.912 50.454 1.7242 61.729 2.6989 5.3989 6.999 19.012 8.6394 27.351 0.60371 3.0687 3.7826 10.863 7.0641 17.322 6.4008 12.597 7.0765 16.006 4.4283 22.344-4.2969 10.284-16.587 14.465-25.962 8.8321z" fill="#2ef5a5"/>
     <path d="m99.5 259.51c-4.9223-1.7195-12.682-10.024-15.888-17.004-6.263-13.634-7.7974-17.846-10.204-28.011-1.4327-6.05-4.1202-14.398-5.9722-18.551-6.7439-15.123-9.2633-52.853-5.0139-75.088 1.658-8.676 2.7159-14.418 4.4155-23.967 2.6495-14.887 15.306-29.126 34.573-38.896 12.172-6.1724 36.234-3.9628 42.882 3.9379 10.54 12.526 1.0564 28.065-17.128 28.065-15.089 0-25.096 7.5444-26.528 20-0.28461 2.475-1.2338 7.65-2.1093 11.5-4.5237 19.892-3.5378 49.38 2.0502 61.324 3.279 7.0089 5.9824 15.447 7.9644 24.86 1.4376 6.8274 5.5013 16.542 10.97 26.223 7.9587 14.09-5.109 30.813-20.011 25.608z" fill="#0af496"/>
    </g>
    <animate
      id="frame3"
      attributeName="display"
      values="none;none;inline;none"
      keyTimes="0;0.33;0.66;1"
      dur="3s"
      begin="frame2.begin+1s"
      repeatCount="indefinite" />
      
  </g>
</svg>

